<mxfile host="app.diagrams.net" modified="2023-11-10T14:53:18.641Z" agent="Mozilla/5.0 (X11; Ubuntu; Linux x86_64; rv:109.0) Gecko/20100101 Firefox/113.0" version="22.1.0" etag="5Lj96UQQgIiI-Fr_ba5v" type="gitlab">
  <diagram name="Page-1" id="y7L1F8gm69cslFiJRmnG">
    <mxGraphModel>
      <root>
        <mxCell id="0" />
        <mxCell id="1" parent="0" />
      </root>
    </mxGraphModel>
  </diagram>
</mxfile>
